<svg width="30" height="29" viewBox="0 0 30 29" fill="none" xmlns="http://www.w3.org/2000/svg">
<g clip-path="url(#clip0_704_1930)">
<path d="M27.5 13.2788V14.3813C27.4985 16.9657 26.6256 19.4803 25.0116 21.5502C23.3977 23.6201 21.1291 25.1343 18.5442 25.8672C15.9592 26.5999 13.1966 26.512 10.6681 25.6162C8.1396 24.7206 5.98081 23.0654 4.5137 20.8973C3.04658 18.7293 2.34973 16.1646 2.5271 13.5859C2.70445 11.0071 3.74651 8.5524 5.49785 6.58784C7.24919 4.62326 9.61599 3.25411 12.2452 2.68456C14.8745 2.11501 17.6254 2.37559 20.0875 3.42742" stroke="#05000B" stroke-width="2" stroke-linecap="round" stroke-linejoin="round"/>
<path d="M27.5 4.7937L15 16.7902L11.25 13.1949" stroke="#05000B" stroke-width="2" stroke-linecap="round" stroke-linejoin="round"/>
</g>
<defs>
<clipPath id="clip0_704_1930">
<rect width="30" height="28.7629" fill="white"/>
</clipPath>
</defs>
</svg>
