<svg width="16" height="16" viewBox="0 0 16 16" fill="none" xmlns="http://www.w3.org/2000/svg">
<g clip-path="url(#clip0_39_564)">
<path d="M10.9708 8.56555C11.7589 7.94896 12.3342 7.10345 12.6166 6.14663C12.899 5.18981 12.8744 4.16927 12.5463 3.22699C12.2182 2.2847 11.6028 1.46754 10.7859 0.889173C9.96889 0.310804 8.99093 0 7.98808 0C6.98519 0 6.00724 0.310804 5.19028 0.889173C4.37331 1.46754 3.75796 2.2847 3.42985 3.22699C3.10173 4.16927 3.07716 5.18981 3.35954 6.14663C3.64193 7.10345 4.21724 7.94896 5.00542 8.56555C3.65484 9.10356 2.47643 9.99591 1.59578 11.1474C0.715138 12.2989 0.165288 13.6665 0.0048493 15.1044C-0.00676409 15.2092 0.00253114 15.3155 0.0322041 15.4169C0.061877 15.5183 0.111347 15.6129 0.177788 15.6953C0.311973 15.8617 0.507144 15.9683 0.720365 15.9916C0.933582 16.0149 1.1474 15.9531 1.31475 15.8196C1.4821 15.6862 1.5893 15.4922 1.61275 15.2802C1.78929 13.7176 2.53865 12.2744 3.71767 11.2265C4.89668 10.1785 6.4227 9.59911 8.00415 9.59911C9.5856 9.59911 11.1116 10.1785 12.2907 11.2265C13.4697 12.2744 14.219 13.7176 14.3956 15.2802C14.4174 15.4766 14.5116 15.658 14.6602 15.7893C14.8086 15.9208 15.0008 15.9928 15.1995 15.9916H15.2879C15.4987 15.9675 15.6913 15.8615 15.8238 15.6968C15.9564 15.5322 16.018 15.322 15.9954 15.1123C15.8342 13.6704 15.2814 12.2994 14.3963 11.146C13.5111 9.99271 12.3269 9.10071 10.9708 8.56555ZM7.98808 7.998C7.35205 7.998 6.73031 7.81047 6.20148 7.45913C5.67264 7.1078 5.26046 6.60842 5.01707 6.02416C4.77366 5.43991 4.70998 4.79701 4.83406 4.17676C4.95815 3.55652 5.26443 2.98679 5.71416 2.53963C6.1639 2.09245 6.7369 1.78793 7.3607 1.66455C7.98451 1.54118 8.6311 1.6045 9.21867 1.84651C9.80631 2.08852 10.3085 2.49834 10.662 3.02415C11.0153 3.54997 11.2039 4.16816 11.2039 4.80056C11.2039 5.64857 10.8651 6.46185 10.262 7.06149C9.65893 7.66113 8.84096 7.998 7.98808 7.998Z" fill="currentColor"/>
</g>
<defs>
<clipPath id="clip0_39_564">
<rect width="16" height="16" fill="currentColor"/>
</clipPath>
</defs>
</svg>
