<svg width="220" height="26" viewBox="0 0 220 26" fill="none" xmlns="http://www.w3.org/2000/svg">
<path fill-rule="evenodd" clip-rule="evenodd" d="M70.4093 0.266873C70.6316 0.374376 70.9655 0.608387 71.1512 0.786941C71.8486 1.4574 71.799 0.516868 71.7948 12.9903C71.7927 19.2149 71.7884 24.3821 71.7854 24.4727C71.7823 24.5634 71.5598 24.8531 71.2912 25.1167C69.943 26.439 68.0881 26.019 67.2386 24.1991L67.0301 23.7524L66.7567 23.987C66.2738 24.4012 64.6233 25.2718 64.1214 25.377C64.0629 25.3893 63.9455 25.4246 63.8607 25.4554C62.9409 25.7896 61.5244 25.8777 60.313 25.6762C58.2394 25.3313 57.2153 24.739 55.4493 22.8635C54.1045 21.4353 53.3693 19.4003 53.3718 17.1136C53.374 15.2529 53.7796 13.723 54.6196 12.4074C55.103 11.6502 56.1835 10.5637 56.3538 10.6635C56.4394 10.7136 56.4626 10.7034 56.4182 10.6354C56.2657 10.4016 58.3946 9.30792 59.5926 9.00452C59.932 8.91856 60.7419 8.82304 61.3924 8.79214C62.3934 8.74468 62.7087 8.76807 63.4445 8.94458C64.283 9.14555 65.7038 9.81415 66.5089 10.3866L66.8432 10.6242V6.1422C66.8432 3.60462 66.8848 1.55652 66.9391 1.42104C67.0765 1.07865 67.6424 0.494744 68.0154 0.310537C68.7547 -0.0545634 69.7084 -0.0720094 70.4093 0.266873ZM206.162 0.235684C206.447 0.370477 206.867 0.644546 207.095 0.844834C207.734 1.40681 207.76 1.64297 207.686 6.13089C207.652 8.2483 207.606 10.1704 207.585 10.4023C207.541 10.882 207.504 10.8932 208.394 10.1526C208.911 9.72244 209.843 9.25383 210.695 8.99526C211.456 8.76427 213.407 8.71008 214.243 8.89663C216.753 9.45675 218.752 11.1909 219.7 13.6309C219.898 14.1395 219.914 14.4645 219.976 19.0936C220.012 21.8007 220.007 24.1638 219.966 24.345C219.815 25.0133 218.507 25.9161 217.69 25.9161C217.189 25.9161 216.471 25.6609 216.132 25.3626C215.971 25.2211 215.721 24.8613 215.577 24.5632L215.315 24.021L215.247 19.7298C215.168 14.7848 215.174 14.8198 214.275 13.9681C213.611 13.3381 212.972 13.1209 211.754 13.1104C211.01 13.104 210.788 13.1421 210.289 13.3623C209.154 13.8637 208.208 14.9562 207.96 16.0526C207.885 16.3848 207.843 17.8484 207.843 20.1528C207.843 23.0989 207.815 23.8266 207.685 24.2429C207.285 25.5181 205.921 26.1447 204.559 25.6785C203.903 25.4537 203.425 25.0723 203.203 24.5959C202.931 24.0145 202.789 22.1415 202.856 20.0126C202.938 17.3877 202.933 5.47389 202.85 3.70881C202.766 1.93195 202.865 1.46958 203.474 0.795225C204.2 -0.00933997 205.202 -0.217718 206.162 0.235684ZM14.0838 3.44449C15.5539 3.74254 16.9691 4.26699 18.0448 4.91249C18.6488 5.27486 19.8385 6.37104 20.2185 6.91518C20.5635 7.40923 20.4902 7.68271 19.8981 8.11116C19.6466 8.29323 19.1495 8.69439 18.7935 9.00286C17.7824 9.87867 17.3322 10.1449 17.0476 10.0354C16.6399 9.87838 16.2382 9.58004 16.3199 9.49476C16.3628 9.45003 16.3424 9.44359 16.2746 9.48044C16.2069 9.51718 15.8366 9.35812 15.4519 9.12674C14.0725 8.29732 13.5673 8.13894 12.1695 8.09771C10.7516 8.05581 10.069 8.16107 9.19203 8.55706C6.74587 9.66143 5.20957 12.0325 5.20679 14.7077C5.20607 15.3966 5.26449 15.9222 5.38554 16.3159C6.36524 19.5028 9.24684 21.5167 12.3012 21.1489C13.6962 20.981 14.6759 20.5845 15.9671 19.6654C16.4089 19.3509 16.8571 19.0936 16.9631 19.0936C17.4346 19.0936 20.4602 21.3453 20.4602 21.6963C20.4602 21.8691 19.945 22.5391 19.5005 22.9445C17.8049 24.4908 16.196 25.2948 14.1353 25.6257C13.7393 25.6894 13.3228 25.7736 13.2097 25.813C12.8065 25.9533 10.745 25.9311 9.80364 25.7763C8.59645 25.5779 7.78254 25.3254 6.57617 24.7754C5.1782 24.138 4.67622 23.8095 3.57342 22.8105C1.74227 21.1514 0.589583 19.0879 0.145294 16.6731C-0.0482597 15.6214 -0.0484655 13.6227 0.144882 12.5815C0.740148 9.37595 2.93928 6.14229 5.39346 4.86396C5.61972 4.74612 5.94368 4.57157 6.11337 4.47605C6.83236 4.07128 9.06861 3.4402 10.3814 3.27139C11.0654 3.18348 13.3152 3.28865 14.0838 3.44449ZM117.132 3.35765C118.132 3.51116 119.46 3.84897 119.667 4.00189C119.73 4.04896 119.851 4.06231 119.936 4.03152C120.025 3.99926 120.117 4.04253 120.154 4.13346C120.189 4.2203 120.26 4.26699 120.311 4.23707C120.362 4.20715 120.536 4.24789 120.697 4.32771C120.859 4.40753 121.042 4.47303 121.103 4.47342C121.249 4.4742 122.371 5.16142 122.806 5.51599C123.744 6.2803 124.374 7.02629 124.291 7.27405C124.16 7.66322 121.737 9.73238 121.13 9.97273L120.773 10.1141L119.704 9.43931C118.177 8.47461 117.33 8.15999 116.106 8.10268C114.676 8.03573 113.861 8.18417 112.754 8.71271C111.165 9.47166 110.217 10.4684 109.523 12.1103C109.089 13.1383 108.982 13.6664 108.987 14.7565C108.997 16.9517 110.183 19.0378 112.115 20.2604C112.83 20.7129 113.533 20.9744 114.594 21.182C115.594 21.3778 115.699 21.3754 116.665 21.1358C117.798 20.8547 118.453 20.5218 120.045 19.4182C120.556 19.064 120.678 19.0181 120.9 19.098C121.837 19.4356 123.21 20.389 124.018 21.2635C124.332 21.6035 124.348 21.6515 124.23 21.9201C124.086 22.2503 122.966 23.3802 122.276 23.8916C121.326 24.5959 119.615 25.3263 118.345 25.5693C115.903 26.0364 114.031 25.9776 111.889 25.3662C110.093 24.8533 108.806 24.0658 107.245 22.5249C105.181 20.4867 104.095 18.3178 103.85 15.7418C103.629 13.4267 103.958 11.5205 104.895 9.68833C106.597 6.36042 109.092 4.35198 112.475 3.58552C114.165 3.20259 115.65 3.12988 117.132 3.35765ZM37.7164 8.86641C40.8923 9.19711 43.4934 10.9361 44.9848 13.7256C45.546 14.7755 45.7825 15.7198 45.8369 17.1283C45.8934 18.5889 45.7978 19.1908 45.3157 20.4094C44.0179 23.6899 40.4973 25.9391 36.6834 25.9243C34.7598 25.9168 33.1298 25.4471 31.4034 24.403C29.7104 23.379 28.3427 21.4343 27.7491 19.207C27.1861 17.0942 27.4053 15.1929 28.4417 13.2013C29.2424 11.6625 30.6798 10.3931 32.5229 9.5971C33.5862 9.13785 34.2245 8.97275 35.3226 8.87285C36.6476 8.75228 36.6212 8.75238 37.7164 8.86641ZM90.4974 9.02294C91.3468 9.22264 92.4692 9.70587 93.2395 10.2035C93.8772 10.6155 94.9636 11.6386 95.2797 12.1249C95.3843 12.2857 95.6184 12.6366 95.8 12.9046C96.5225 13.9711 96.8738 15.2176 96.8738 16.7151C96.8738 18.0223 96.7547 18.3742 96.2615 18.5238C95.738 18.6826 87.0184 18.8573 85.8754 18.732C85.3913 18.6789 84.9536 18.6705 84.9028 18.7134C84.7674 18.8274 85.1633 19.6296 85.6393 20.2062C86.1251 20.7944 87.053 21.3434 87.8794 21.5313C88.6958 21.7168 89.9892 21.5475 91.6266 21.0404C92.3504 20.8164 93.0081 20.6665 93.1349 20.6966C93.6537 20.82 95.7425 22.8298 95.7425 23.2056C95.7425 23.8655 94.0427 24.9278 92.1783 25.4331C90.1691 25.9777 88.4774 26.0403 86.6833 25.6367C84.836 25.2211 83.7494 24.6939 82.5847 23.6485C81.4055 22.5901 80.8935 21.8849 80.3328 20.5473C79.9886 19.726 79.6987 18.1813 79.6987 17.1676C79.6987 15.5399 80.388 13.5033 81.4259 12.064C82.0316 11.2242 82.5884 10.7037 83.4217 10.1986C85.5034 8.93659 88.2141 8.48621 90.4974 9.02294ZM141.354 8.89585C143.129 9.14916 144.727 9.9201 146.197 11.2314C147.317 12.2298 148.119 13.4166 148.613 14.8052C148.908 15.6338 148.948 15.8802 148.992 17.1505C149.033 18.3618 149.01 18.6856 148.83 19.3595C148.4 20.9707 147.598 22.2837 146.319 23.4719C144.536 25.1274 142.388 25.9224 139.695 25.9232C137.755 25.9238 136.244 25.4673 134.548 24.3676C133.487 23.6797 133.319 23.5395 132.547 22.6979C131.377 21.4218 130.632 19.7608 130.392 17.8927C130.258 16.8521 130.308 16.3169 130.661 15.0312C131.252 12.8724 133.065 10.7013 135.114 9.69729C136.714 8.91329 139.22 8.59137 141.354 8.89585ZM165.535 8.91339C167.293 9.20393 168.964 10.0567 169.794 11.0872C169.99 11.3311 170.277 11.6538 170.431 11.8044C170.888 12.2511 171.538 13.6384 171.699 14.5118C171.808 15.102 171.845 16.4064 171.851 19.8361L171.858 24.3787L171.622 24.8306C171.36 25.3295 170.809 25.6584 170.04 25.773C169.259 25.8897 168.831 25.695 168.188 24.9314C167.871 24.5543 167.54 24.2199 167.453 24.1883C167.363 24.1557 166.732 24.4103 165.989 24.7787C164.461 25.5365 163.69 25.7919 162.484 25.9401C161.695 26.0368 161.505 26.0261 160.646 25.8361C158.695 25.4051 157.405 24.5071 156.616 23.0314L156.164 22.187V20.6647V19.1423L156.546 18.445C157.281 17.1021 158.752 15.9068 160.175 15.4951C161.38 15.1462 162.963 15.0388 164.777 15.1828C167.161 15.372 166.968 15.3797 166.926 15.0976C166.832 14.4706 166.088 13.7136 165.078 13.218C163.88 12.6297 162.823 12.6591 160.629 13.3419C159.938 13.557 159.288 13.7331 159.186 13.7331C159.083 13.7331 158.837 13.5982 158.639 13.4333C158.229 13.0925 157.259 11.8984 156.993 11.4071L156.815 11.0792L157.137 10.7639C157.522 10.388 158.95 9.66308 160.012 9.30451C161.56 8.78211 163.787 8.62441 165.535 8.91339ZM190.296 8.9093C191.885 9.17196 193.78 10.0289 194.525 10.8215C195.174 11.5119 195.162 11.4391 194.721 12.0547C194.287 12.662 193.246 13.7416 192.813 14.0348L192.541 14.2188L191.373 13.6945C190.731 13.4061 189.988 13.1214 189.723 13.0618C188.656 12.8221 187.407 12.9941 186.479 13.5084C185.577 14.0081 184.647 15.2418 184.352 16.3299C184.133 17.1347 184.147 17.6763 184.406 18.4742C184.696 19.367 185.043 19.9056 185.758 20.5724C186.573 21.3331 187.218 21.5609 188.406 21.5076C189.45 21.4607 190.064 21.253 191.377 20.5028C191.889 20.2101 192.367 19.9711 192.439 19.9714C192.656 19.9722 194.861 22.0777 195.089 22.502C195.285 22.8664 195.289 22.9172 195.143 23.185C194.84 23.7413 193.089 24.9503 192.094 25.2909C188.995 26.3516 185.618 26.0637 183.24 24.5361C181.987 23.7305 180.623 22.2398 180.08 21.0813C179.339 19.4994 179.055 17.0009 179.443 15.4673C179.813 14.0035 180.22 13.1533 181.059 12.0929C182.233 10.6076 183.433 9.7815 185.259 9.20081C186.652 8.75784 188.672 8.64088 190.296 8.9093ZM138.732 13.1866C137.427 13.462 136.58 14.1426 135.874 15.4829C135.499 16.1951 135.492 16.2313 135.492 17.3347C135.492 18.4591 135.492 18.4607 135.901 19.1911C136.407 20.0953 137.151 20.8189 137.96 21.1942C138.526 21.4568 138.667 21.4801 139.657 21.4764C141.039 21.4711 141.666 21.2555 142.548 20.4816C143.359 19.7701 143.7 19.2866 143.965 18.4725C144.236 17.6426 144.238 17.1866 143.977 16.218C143.518 14.5199 142.241 13.4249 140.409 13.1584C139.532 13.0309 139.464 13.032 138.732 13.1866ZM35.6551 13.2541C34.5248 13.5066 33.2682 14.5145 32.6906 15.6319C32.3574 16.2765 32.3389 16.3666 32.3404 17.3375C32.3421 18.302 32.3627 18.403 32.6908 19.0449C33.1099 19.8648 34.0586 20.7766 34.9252 21.1921C35.7569 21.5909 37.053 21.651 37.9724 21.3332C40.382 20.5006 41.6758 17.7409 40.6608 15.5987C40.0957 14.4063 39.2685 13.6657 38.1248 13.3284C37.4749 13.1368 36.3342 13.1024 35.6551 13.2541ZM87.4635 13.2116C86.8553 13.3636 86.1345 13.8089 85.5193 14.4127C85.1462 14.779 84.841 15.1217 84.841 15.1742C84.841 15.354 85.306 15.3873 87.8749 15.3916C89.289 15.3941 90.7895 15.4382 91.2093 15.4899C91.6292 15.5415 91.9909 15.5665 92.0132 15.5454C92.0354 15.5244 91.9999 15.3163 91.9342 15.0831C91.7795 14.5337 91.0834 13.9037 90.1889 13.5034C89.6178 13.2478 89.3856 13.201 88.5948 13.1822C88.0857 13.1701 87.5766 13.1833 87.4635 13.2116ZM61.0839 13.3323C60.2444 13.59 59.4963 14.1794 58.8906 15.0602C58.1616 16.1202 58.0843 18.086 58.7241 19.2936C59.2715 20.3269 60.8116 21.3378 62.0643 21.486C63.2675 21.6285 64.5102 21.1917 65.4338 20.3016C66.9612 18.8294 67.3548 16.5667 66.3474 15.0494C66.2053 14.8353 66.089 14.6069 66.089 14.542C66.089 14.477 66.0577 14.4422 66.0196 14.4646C65.9814 14.4869 65.7924 14.3491 65.5996 14.1583C65.4068 13.9675 64.9945 13.6981 64.6834 13.5597C64.1767 13.3343 63.9732 13.3052 62.7294 13.2808C61.9657 13.2657 61.2253 13.2889 61.0839 13.3323ZM163.929 18.6678C163.145 18.733 162.048 19.0116 161.593 19.2608C160.779 19.7057 160.453 20.6318 160.907 21.2075C161.203 21.5833 162.037 22.0278 162.592 22.1052C164.124 22.3193 165.942 21.4743 166.456 20.3092C166.638 19.8971 166.64 19.3916 166.46 19.1678C166.154 18.7858 165.074 18.5724 163.929 18.6678Z" fill="#08382D"/>
</svg>
