<svg width="48" height="49" viewBox="0 0 48 49" fill="none" xmlns="http://www.w3.org/2000/svg">
<g clip-path="url(#clip0_1_363)">
<g clip-path="url(#clip1_1_363)">
<g clip-path="url(#clip2_1_363)">
<path d="M24 0.5C10.745 0.5 0 11.245 0 24.5C0 37.755 10.745 48.5 24 48.5C37.255 48.5 48 37.755 48 24.5C48 11.245 37.255 0.5 24 0.5Z" fill="#40B3E0"/>
<path d="M35.6781 14.3059L31.3901 35.9189C31.3901 35.9189 30.7901 37.4169 29.1421 36.6979L19.2501 29.1139L15.6531 27.3749L9.59806 25.3369C9.59806 25.3369 8.66806 25.0069 8.57806 24.2869C8.48806 23.5679 9.62806 23.1789 9.62806 23.1789L33.6981 13.7359C33.6981 13.7359 35.6771 12.8669 35.6771 14.3059" fill="white"/>
<path d="M18.4901 35.6749C18.4901 35.6749 18.2021 35.6489 17.8421 34.5089C17.4821 33.3699 15.6541 27.3749 15.6541 27.3749L30.1921 18.1419C30.1921 18.1419 31.0321 17.6319 31.0021 18.1419C31.0021 18.1419 31.1521 18.232 30.7021 18.652C30.2521 19.072 19.2811 28.9339 19.2811 28.9339" fill="#D2E5F1"/>
<path d="M23.044 32.0221L19.131 35.5891C19.131 35.5891 18.825 35.8211 18.491 35.6761L19.24 29.0491" fill="#B5CFE4"/>
</g>
</g>
</g>
<defs>
<clipPath id="clip0_1_363">
<rect width="48" height="48" fill="white" transform="translate(0 0.5)"/>
</clipPath>
<clipPath id="clip1_1_363">
<rect width="48" height="48" fill="white" transform="translate(0 0.5)"/>
</clipPath>
<clipPath id="clip2_1_363">
<rect width="48" height="48" fill="white" transform="translate(0 0.5)"/>
</clipPath>
</defs>
</svg>
