<svg width="20" height="24" viewBox="0 0 20 24" fill="none" xmlns="http://www.w3.org/2000/svg">
<g clip-path="url(#clip0_16_15709)">
<mask id="mask0_16_15709" style="mask-type:luminance" maskUnits="userSpaceOnUse" x="0" y="2" width="20" height="20">
<path d="M20 12C20 6.47715 15.5228 2 10 2C4.47715 2 0 6.47715 0 12C0 17.5228 4.47715 22 10 22C15.5228 22 20 17.5228 20 12Z" fill="white"/>
</mask>
<g mask="url(#mask0_16_15709)">
<mask id="mask1_16_15709" style="mask-type:luminance" maskUnits="userSpaceOnUse" x="-2" y="0" width="24" height="24">
<path d="M9.99885 23.667C16.4423 23.667 21.6657 18.4436 21.6657 12.0002C21.6657 5.55678 16.4423 0.333374 9.99885 0.333374C3.55544 0.333374 -1.66797 5.55678 -1.66797 12.0002C-1.66797 18.4436 3.55544 23.667 9.99885 23.667Z" fill="white"/>
</mask>
<g mask="url(#mask1_16_15709)">
<path d="M-2.23926 -0.23877H22.2382V24.2387H-2.23926V-0.23877Z" fill="#E5E5E4"/>
</g>
<mask id="mask2_16_15709" style="mask-type:luminance" maskUnits="userSpaceOnUse" x="-2" y="0" width="24" height="24">
<path d="M9.9986 23.4381C16.3157 23.4381 21.4367 18.3171 21.4367 12.0001C21.4367 5.683 16.3157 0.562012 9.9986 0.562012C3.68154 0.562012 -1.43945 5.683 -1.43945 12.0001C-1.43945 18.3171 3.68154 23.4381 9.9986 23.4381Z" fill="white"/>
</mask>
<g mask="url(#mask2_16_15709)">
<path d="M-2.01172 -0.0101318H22.0082V24.0098H-2.01172V-0.0101318Z" fill="white"/>
</g>
<mask id="mask3_16_15709" style="mask-type:luminance" maskUnits="userSpaceOnUse" x="-1" y="1" width="22" height="22">
<path d="M9.99959 22.5228C15.8113 22.5228 20.5226 17.8115 20.5226 11.9998C20.5226 6.18811 15.8113 1.47681 9.99959 1.47681C4.18787 1.47681 -0.523438 6.18811 -0.523438 11.9998C-0.523438 17.8115 4.18787 22.5228 9.99959 22.5228Z" fill="white"/>
</mask>
<g mask="url(#mask3_16_15709)">
<path d="M-1.0957 0.905151H21.0941V23.095H-1.0957V0.905151Z" fill="#4A8CFF"/>
</g>
<mask id="mask4_16_15709" style="mask-type:luminance" maskUnits="userSpaceOnUse" x="3" y="8" width="14" height="8">
<path fill-rule="evenodd" clip-rule="evenodd" d="M13.2022 10.6345L16.1761 8.46133C16.4358 8.24973 16.6336 8.29891 16.6336 8.69009V15.3173C16.6336 15.7565 16.3866 15.7062 16.1761 15.546L13.2022 13.3728V10.6345ZM3.13672 8.70611V13.6474C3.13944 14.1838 3.35508 14.6972 3.73622 15.0747C4.11737 15.4522 4.63282 15.6629 5.16926 15.6605H12.3753C12.4727 15.6607 12.5663 15.6224 12.6356 15.5538C12.7048 15.4852 12.7441 15.3919 12.7447 15.2945V10.3532C12.7419 9.81674 12.5263 9.30334 12.1452 8.92584C11.764 8.54835 11.2486 8.33766 10.7122 8.34009H3.50617C3.40869 8.33978 3.31505 8.37814 3.2458 8.44675C3.17655 8.51536 3.13732 8.60863 3.13672 8.70611Z" fill="white"/>
</mask>
<g mask="url(#mask4_16_15709)">
<path d="M2.56445 7.76831H17.2052V16.2325H2.56445V7.76831Z" fill="white"/>
</g>
</g>
</g>
<defs>
<clipPath id="clip0_16_15709">
<rect width="20" height="24" fill="white"/>
</clipPath>
</defs>
</svg>
