<svg width="48" height="49" viewBox="0 0 48 49" fill="none" xmlns="http://www.w3.org/2000/svg">
<g clip-path="url(#clip0_5_300)">
<mask id="mask0_5_300" style="mask-type:luminance" maskUnits="userSpaceOnUse" x="0" y="0" width="48" height="49">
<path d="M0 0.5H48V48.5H0V0.5Z" fill="white"/>
</mask>
<g mask="url(#mask0_5_300)">
<path d="M31.366 0.5H16.633C3.18602 0.5 -0.000976562 3.688 -0.000976562 17.134V31.868C-0.000976562 45.314 3.18602 48.502 16.632 48.502H31.366C44.813 48.502 48 45.313 48 31.867V17.134C48 3.687 44.781 0.5 31.366 0.5ZM38.749 34.742H35.265C33.945 34.742 33.538 33.695 31.164 31.289C29.101 29.289 28.188 29.024 27.679 29.024C26.961 29.024 26.757 29.227 26.757 30.212V33.361C26.757 34.205 26.491 34.712 24.257 34.712C20.56 34.712 16.459 32.477 13.584 28.313C9.24802 22.211 8.06102 17.641 8.06102 16.696C8.06102 16.187 8.26402 15.711 9.24002 15.711H12.732C13.616 15.711 13.952 16.118 14.295 17.063C16.021 22.048 18.897 26.414 20.084 26.414C20.522 26.414 20.724 26.211 20.724 25.094V19.946C20.59 17.571 19.341 17.367 19.341 16.524C19.341 16.118 19.677 15.711 20.215 15.711H25.707C26.449 15.711 26.722 16.118 26.722 16.992V23.937C26.722 24.687 27.058 24.953 27.261 24.953C27.699 24.953 28.074 24.688 28.886 23.875C31.394 21.062 33.191 16.725 33.191 16.725C33.424 16.217 33.831 15.741 34.714 15.741H38.206C39.253 15.741 39.487 16.28 39.253 17.03C38.815 19.061 34.542 25.093 34.542 25.093C34.175 25.701 34.033 25.967 34.542 26.646C34.917 27.155 36.136 28.209 36.948 29.154C38.44 30.849 39.588 32.271 39.894 33.255C40.237 34.232 39.731 34.74 38.745 34.74L38.749 34.742Z" fill="#5181B8"/>
</g>
</g>
<defs>
<clipPath id="clip0_5_300">
<rect width="48" height="48" fill="white" transform="translate(0 0.5)"/>
</clipPath>
</defs>
</svg>
